<svg xmlns="http://www.w3.org/2000/svg" version="1.1" xmlns:xlink="http://www.w3.org/1999/xlink" xmlns:svgjs="http://svgjs.dev/svgjs" width="1000" height="1000"><style>
    #light-icon {
      display: inline;
    }
    #dark-icon {
      display: none;
    }

    @media (prefers-color-scheme: dark) {
      #light-icon {
        display: none;
      }
      #dark-icon {
        display: inline;
      }
    }
  </style><g id="light-icon"><svg xmlns="http://www.w3.org/2000/svg" version="1.1" xmlns:xlink="http://www.w3.org/1999/xlink" xmlns:svgjs="http://svgjs.dev/svgjs" width="1000" height="1000"><g clip-path="url(#SvgjsClipPath1385)"><rect width="1000" height="1000" fill="#1c1c1c"></rect><g transform="matrix(1.392757660167131,0,0,1.392757660167131,250,251.39275766016712)"><svg xmlns="http://www.w3.org/2000/svg" version="1.1" xmlns:xlink="http://www.w3.org/1999/xlink" xmlns:svgjs="http://svgjs.dev/svgjs" width="359" height="357"><svg width="359" height="357" viewBox="0 0 359 357" fill="none" xmlns="http://www.w3.org/2000/svg">
<path d="M144.513 75.1L169.077 19.8005C172.595 11.8816 174.354 7.92217 176.863 6.63267C179.044 5.51154 181.62 5.45306 183.85 6.47401C186.415 7.64829 188.351 11.5238 192.225 19.2749L348.744 332.478C351.809 338.611 353.341 341.678 352.973 344.17C352.651 346.347 351.447 348.295 349.643 349.556C347.579 351 344.15 351 337.294 351H289.684C286.806 351 285.367 351 284.097 350.561C282.974 350.173 281.952 349.54 281.104 348.707C280.146 347.766 279.505 346.478 278.223 343.901L213.134 213.05M144.513 75.1L213.134 213.05M144.513 75.1L75.2563 213.05M6 351L75.2563 213.05M213.134 213.05H75.2563" stroke="white" stroke-width="11" stroke-linecap="round" stroke-linejoin="round"></path>
</svg></svg></g></g><defs><clipPath id="SvgjsClipPath1385"><rect width="1000" height="1000" x="0" y="0" rx="500" ry="500"></rect></clipPath></defs></svg></g><g id="dark-icon"><svg xmlns="http://www.w3.org/2000/svg" version="1.1" xmlns:xlink="http://www.w3.org/1999/xlink" xmlns:svgjs="http://svgjs.dev/svgjs" width="1000" height="1000"><g><g transform="matrix(2.785515320334262,0,0,2.785515320334262,0,2.785515320334241)"><svg xmlns="http://www.w3.org/2000/svg" version="1.1" xmlns:xlink="http://www.w3.org/1999/xlink" xmlns:svgjs="http://svgjs.dev/svgjs" width="359" height="357"><svg width="359" height="357" viewBox="0 0 359 357" fill="none" xmlns="http://www.w3.org/2000/svg">
<path d="M144.513 75.1L169.077 19.8005C172.595 11.8816 174.354 7.92217 176.863 6.63267C179.044 5.51154 181.62 5.45306 183.85 6.47401C186.415 7.64829 188.351 11.5238 192.225 19.2749L348.744 332.478C351.809 338.611 353.341 341.678 352.973 344.17C352.651 346.347 351.447 348.295 349.643 349.556C347.579 351 344.15 351 337.294 351H289.684C286.806 351 285.367 351 284.097 350.561C282.974 350.173 281.952 349.54 281.104 348.707C280.146 347.766 279.505 346.478 278.223 343.901L213.134 213.05M144.513 75.1L213.134 213.05M144.513 75.1L75.2563 213.05M6 351L75.2563 213.05M213.134 213.05H75.2563" stroke="white" stroke-width="11" stroke-linecap="round" stroke-linejoin="round"></path>
</svg></svg></g></g></svg></g></svg>